<mxfile host="Electron" agent="Mozilla/5.0 (Windows NT 10.0; Win64; x64) AppleWebKit/537.36 (KHTML, like Gecko) draw.io/24.7.17 Chrome/128.0.6613.36 Electron/32.0.1 Safari/537.36" version="24.7.17">
  <diagram id="10ifoi6bdJo_da6fG-TG" name="Page-1">
    <mxGraphModel dx="1036" dy="751" grid="1" gridSize="10" guides="1" tooltips="1" connect="1" arrows="1" fold="1" page="1" pageScale="1" pageWidth="850" pageHeight="1100" math="0" shadow="0">
      <root>
        <mxCell id="0" />
        <mxCell id="1" parent="0" />
        <mxCell id="oXJwfy2o2yNfhM5xkF7h-10" value="" style="group" parent="1" vertex="1" connectable="0">
          <mxGeometry x="120" y="120" width="232.5" height="400" as="geometry" />
        </mxCell>
        <mxCell id="oXJwfy2o2yNfhM5xkF7h-1" value="" style="html=1;verticalLabelPosition=bottom;labelBackgroundColor=#ffffff;verticalAlign=top;shadow=0;dashed=0;strokeWidth=1;shape=mxgraph.ios7.misc.iphone;strokeColor=#c0c0c0;" parent="oXJwfy2o2yNfhM5xkF7h-10" vertex="1">
          <mxGeometry width="200" height="400" as="geometry" />
        </mxCell>
        <mxCell id="oXJwfy2o2yNfhM5xkF7h-2" value="" style="html=1;verticalLabelPosition=bottom;labelBackgroundColor=#ffffff;verticalAlign=top;shadow=0;dashed=0;strokeWidth=2;shape=mxgraph.ios7.misc.options;fillColor=#222222;sketch=0;" parent="oXJwfy2o2yNfhM5xkF7h-10" vertex="1">
          <mxGeometry x="160" y="85" width="16" height="12" as="geometry" />
        </mxCell>
        <mxCell id="oXJwfy2o2yNfhM5xkF7h-79" value="" style="rounded=1;whiteSpace=wrap;html=1;shadow=0;fillColor=none;strokeColor=#ff0000;" parent="oXJwfy2o2yNfhM5xkF7h-10" vertex="1">
          <mxGeometry x="148.5" y="71" width="36.5" height="34" as="geometry" />
        </mxCell>
        <mxCell id="l_4_kS8voFQOMj7Jpewp-4" value="GIF&#xa;Finder" style="text;strokeColor=none;fillColor=none;fontSize=14;fontStyle=1;verticalAlign=middle;align=center;spacing=0;" parent="oXJwfy2o2yNfhM5xkF7h-10" vertex="1">
          <mxGeometry x="10" y="65" width="70" height="40" as="geometry" />
        </mxCell>
        <mxCell id="oXJwfy2o2yNfhM5xkF7h-46" value="Hey there,&lt;div&gt;&lt;br&gt;&lt;/div&gt;&lt;div&gt;Give me something to search for!&lt;/div&gt;" style="text;spacingTop=-5;whiteSpace=wrap;html=1;align=left;fontSize=12;fontFamily=Helvetica;fillColor=none;strokeColor=none;" parent="oXJwfy2o2yNfhM5xkF7h-10" vertex="1">
          <mxGeometry x="20" y="140" width="160" height="90" as="geometry" />
        </mxCell>
        <mxCell id="oXJwfy2o2yNfhM5xkF7h-35" value="" style="group" parent="1" vertex="1" connectable="0">
          <mxGeometry x="400" y="120" width="200" height="400" as="geometry" />
        </mxCell>
        <mxCell id="oXJwfy2o2yNfhM5xkF7h-36" value="" style="html=1;verticalLabelPosition=bottom;labelBackgroundColor=#ffffff;verticalAlign=top;shadow=0;dashed=0;strokeWidth=1;shape=mxgraph.ios7.misc.iphone;strokeColor=#c0c0c0;" parent="oXJwfy2o2yNfhM5xkF7h-35" vertex="1">
          <mxGeometry width="200" height="400" as="geometry" />
        </mxCell>
        <mxCell id="l_4_kS8voFQOMj7Jpewp-1" value="Search for" style="strokeWidth=1;shadow=0;dashed=0;align=center;html=1;shape=mxgraph.mockup.forms.comboBox;strokeColor=default;fillColor=none;align=left;fillColor2=#aaddff;mainText=;fontColor=default;fontSize=12;spacingLeft=3;fontFamily=Verdana;" parent="oXJwfy2o2yNfhM5xkF7h-35" vertex="1">
          <mxGeometry x="80" y="68" width="105" height="20" as="geometry" />
        </mxCell>
        <mxCell id="l_4_kS8voFQOMj7Jpewp-2" value="Keyword" style="rounded=1;whiteSpace=wrap;html=1;align=left;" parent="oXJwfy2o2yNfhM5xkF7h-35" vertex="1">
          <mxGeometry x="80" y="90" width="105" height="20" as="geometry" />
        </mxCell>
        <mxCell id="l_4_kS8voFQOMj7Jpewp-3" value="Search" style="strokeWidth=1;shadow=0;dashed=0;align=center;html=1;shape=mxgraph.mockup.buttons.button;strokeColor=#666666;fontColor=#000000;mainText=;buttonStyle=round;fontSize=12;fontStyle=0;fillColor=none;whiteSpace=wrap;fontFamily=Verdana;" parent="oXJwfy2o2yNfhM5xkF7h-35" vertex="1">
          <mxGeometry x="115" y="112" width="70" height="20" as="geometry" />
        </mxCell>
        <mxCell id="l_4_kS8voFQOMj7Jpewp-5" value="GIF&#xa;Finder" style="text;strokeColor=none;fillColor=none;fontSize=14;fontStyle=1;verticalAlign=middle;align=center;spacing=0;" parent="oXJwfy2o2yNfhM5xkF7h-35" vertex="1">
          <mxGeometry x="5" y="68" width="70" height="40" as="geometry" />
        </mxCell>
        <mxCell id="l_4_kS8voFQOMj7Jpewp-6" value="" style="verticalLabelPosition=bottom;shadow=0;dashed=0;align=center;html=1;verticalAlign=top;strokeWidth=1;shape=mxgraph.mockup.graphics.simpleIcon;strokeColor=#999999;" parent="oXJwfy2o2yNfhM5xkF7h-35" vertex="1">
          <mxGeometry x="16.33842105263159" y="150" width="168.65824561403508" height="100" as="geometry" />
        </mxCell>
        <mxCell id="l_4_kS8voFQOMj7Jpewp-7" value="Image Title" style="text;strokeColor=none;fillColor=none;html=1;fontSize=12;fontStyle=1;verticalAlign=middle;align=center;spacing=0;" parent="oXJwfy2o2yNfhM5xkF7h-35" vertex="1">
          <mxGeometry x="54.9666666666667" y="261" width="90.06175438596492" height="20" as="geometry" />
        </mxCell>
        <mxCell id="l_4_kS8voFQOMj7Jpewp-8" value="" style="verticalLabelPosition=bottom;shadow=0;dashed=0;align=center;html=1;verticalAlign=top;strokeWidth=1;shape=mxgraph.mockup.graphics.simpleIcon;strokeColor=#999999;" parent="oXJwfy2o2yNfhM5xkF7h-35" vertex="1">
          <mxGeometry x="15.67" y="290" width="168.66" height="50" as="geometry" />
        </mxCell>
        <mxCell id="oXJwfy2o2yNfhM5xkF7h-78" value="" style="endArrow=classic;html=1;rounded=0;strokeColor=#ff0000;strokeWidth=2;entryX=0.004;entryY=0.476;entryDx=0;entryDy=0;entryPerimeter=0;exitX=1;exitY=0.5;exitDx=0;exitDy=0;" parent="1" source="oXJwfy2o2yNfhM5xkF7h-79" target="oXJwfy2o2yNfhM5xkF7h-36" edge="1">
          <mxGeometry width="50" height="50" relative="1" as="geometry">
            <mxPoint x="370" y="240" as="sourcePoint" />
            <mxPoint x="400" y="310" as="targetPoint" />
            <Array as="points">
              <mxPoint x="360" y="208" />
              <mxPoint x="360" y="310" />
            </Array>
          </mxGeometry>
        </mxCell>
        <mxCell id="dBPDeCTWkSKzh0rEWsag-1" value="Mobile Device View" style="text;strokeColor=none;fillColor=none;fontSize=14;fontStyle=1;verticalAlign=middle;align=center;spacing=0;" vertex="1" parent="1">
          <mxGeometry x="120" y="60" width="160" height="40" as="geometry" />
        </mxCell>
      </root>
    </mxGraphModel>
  </diagram>
</mxfile>
